HIERARCHY
ROOT Hips
{
	OFFSET 0.0000 0.0000 0.0000
	CHANNELS 6 Xposition Yposition Zposition Zrotation Xrotation Yrotation
	JOINT Spine1
	{
		OFFSET -0.0137 5.0038 -0.0537
		CHANNELS 3 Zrotation Xrotation Yrotation
		JOINT Spine2
		{
			OFFSET -0.0000 7.1253 -0.0298
			CHANNELS 3 Zrotation Xrotation Yrotation
			JOINT Chest
			{
				OFFSET -0.0000 7.5501 -0.8160
				CHANNELS 3 Zrotation Xrotation Yrotation
				JOINT Neck1
				{
					OFFSET -0.1817 26.3113 -0.5533
					CHANNELS 3 Zrotation Xrotation Yrotation
					JOINT Neck2
					{
						OFFSET -0.0000 7.7094 2.3026
						CHANNELS 3 Zrotation Xrotation Yrotation
						JOINT Head
						{
							OFFSET -0.0000 6.1289 1.9537
							CHANNELS 3 Zrotation Xrotation Yrotation
							JOINT Jaw
							{
								OFFSET 0.0026 0.4756 3.0949
								CHANNELS 3 Zrotation Xrotation Yrotation
								End Site
								{
									OFFSET 0.0 1.0 0.0
								}
							}
							JOINT LeftEye
							{
								OFFSET 3.2064 5.3802 7.5869
								CHANNELS 3 Zrotation Xrotation Yrotation
								End Site
								{
									OFFSET 0.0 1.0 0.0
								}
							}
							JOINT RightEye
							{
								OFFSET -3.2224 5.3619 7.5582
								CHANNELS 3 Zrotation Xrotation Yrotation
								End Site
								{
									OFFSET 0.0 1.0 0.0
								}
							}
						}
					}
				}
				JOINT LeftShoulder
				{
					OFFSET 1.6217 23.2372 5.1134
					CHANNELS 3 Zrotation Xrotation Yrotation
					JOINT LeftArm
					{
						OFFSET 14.9198 0.0000 -5.5023
						CHANNELS 3 Zrotation Xrotation Yrotation
						JOINT LeftForeArm
						{
							OFFSET 28.7393 0.0000 -0.0026
							CHANNELS 3 Zrotation Xrotation Yrotation
							JOINT LeftHand
							{
								OFFSET 27.0940 -0.0000 0.0026
								CHANNELS 3 Zrotation Xrotation Yrotation
								JOINT LeftHandThumbEnd
								{
									OFFSET 12.2686 -3.2202 4.8331
									CHANNELS 3 Zrotation Xrotation Yrotation
									End Site
									{
										OFFSET 0.0 1.0 0.0
									}
								}
								JOINT LeftHandMiddleEnd
								{
									OFFSET 19.0120 -0.3129 -0.0340
									CHANNELS 3 Zrotation Xrotation Yrotation
									End Site
									{
										OFFSET 0.0 1.0 0.0
									}
								}
							}
						}
					}
				}
				JOINT RightShoulder
				{
					OFFSET -1.3801 23.1803 5.2142
					CHANNELS 3 Zrotation Xrotation Yrotation
					JOINT RightArm
					{
						OFFSET -15.0372 0.0000 -5.5456
						CHANNELS 3 Zrotation Xrotation Yrotation
						JOINT RightForeArm
						{
							OFFSET -28.7366 0.0000 -0.0026
							CHANNELS 3 Zrotation Xrotation Yrotation
							JOINT RightHand
							{
								OFFSET -27.1336 -0.0000 0.0026
								CHANNELS 3 Zrotation Xrotation Yrotation
								JOINT RightHandThumbEnd
								{
									OFFSET -12.2642 -3.2115 4.8040
									CHANNELS 3 Zrotation Xrotation Yrotation
									End Site
									{
										OFFSET 0.0 1.0 0.0
									}
								}
								JOINT RightHandMiddleEnd
								{
									OFFSET -19.0006 -0.3066 -0.0316
									CHANNELS 3 Zrotation Xrotation Yrotation
									End Site
									{
										OFFSET 0.0 1.0 0.0
									}
								}
							}
						}
					}
				}
			}
		}
	}
	JOINT LeftLeg
	{
		OFFSET 10.0432 -8.4345 2.5957
		CHANNELS 3 Zrotation Xrotation Yrotation
		JOINT LeftShin
		{
			OFFSET -0.0000 -43.2218 -0.8029
			CHANNELS 3 Zrotation Xrotation Yrotation
			JOINT LeftFoot
			{
				OFFSET 0.0000 -42.1551 -3.4815
				CHANNELS 3 Zrotation Xrotation Yrotation
				JOINT LeftToeBase
				{
					OFFSET 0.0000 -5.0595 13.2315
					CHANNELS 3 Zrotation Xrotation Yrotation
					End Site
					{
						OFFSET 0.0 1.0 0.0
					}
				}
			}
		}
	}
	JOINT RightLeg
	{
		OFFSET -10.0473 -8.2953 2.6203
		CHANNELS 3 Zrotation Xrotation Yrotation
		JOINT RightShin
		{
			OFFSET 0.0000 -43.3622 -0.8056
			CHANNELS 3 Zrotation Xrotation Yrotation
			JOINT RightFoot
			{
				OFFSET 0.0000 -42.1174 -3.4784
				CHANNELS 3 Zrotation Xrotation Yrotation
				JOINT RightToeBase
				{
					OFFSET -0.0000 -5.0796 13.2842
					CHANNELS 3 Zrotation Xrotation Yrotation
					End Site
					{
						OFFSET 0.0 1.0 0.0
					}
				}
			}
		}
	}
}
MOTION
Frames: 14
Frame Time: 0.033333
-2.9665 92.2468 0.2274 0.4780 -0.7450 0.8757 -3.6399 7.9945 0.3000 -2.4081 -1.4654 0.7803 -10.0468 25.8674 -4.7692 -4.4261 32.0352 6.8655 -0.0128 -3.5273 4.5550 4.2517 -5.3494 2.1912 -0.1505 -0.0482 0.0938 0.5727 -10.3905 -3.6874 -0.8820 -10.4301 3.9319 -7.5011 13.6085 -12.4754 -37.9976 -60.6846 -0.9381 0.0987 -1.7182 -71.7702 118.3723 -75.7588 -59.1655 -15.3597 10.6224 14.8222 -58.0855 1.6897 1.8786 12.3939 22.2085 13.8436 65.3606 37.5834 49.1752 1.7116 -1.9276 96.2684 47.3007 -16.1187 6.3712 15.4368 7.6832 -16.4057 52.0493 -3.5076 -5.0293 8.0514 -35.8797 21.3738 -0.2871 29.8590 -0.6169 -8.1116 7.9330 4.0684 1.6294 0.5608 -2.0204 -16.7317 -3.2330 -18.4080 0.1132 29.9266 0.6796 20.7761 -23.6743 -4.7711 -1.4509 -0.3979 1.1622
-3.0758 92.2713 0.1868 0.2493 -0.6473 0.9146 -3.6388 7.9097 0.3111 -2.4381 -1.4596 0.7954 -10.1436 25.9437 -4.9630 -4.4044 32.4450 6.9670 -0.0788 -3.5235 4.4451 4.3975 -5.1950 2.0836 -0.1700 -0.0543 0.1004 0.5423 -10.3491 -3.6721 -0.8890 -10.3773 3.9328 -7.4318 13.5631 -12.5281 -37.4726 -61.1550 -1.8151 0.0737 -1.7574 -71.4176 117.7686 -75.0557 -58.2269 -15.4602 10.6506 14.8051 -58.1095 1.6422 1.9598 12.3376 22.2795 13.7792 65.8671 37.6906 50.2982 1.3204 -1.7260 96.0984 46.7192 -15.7484 6.7043 15.3361 7.6622 -16.4675 52.1631 -3.4745 -5.0247 8.3417 -36.1826 21.4931 -0.3096 29.8409 -0.6043 -8.2072 8.0213 3.6965 1.6302 0.5547 -1.9958 -16.3680 -3.0594 -18.3503 0.0807 29.7692 0.6739 20.6504 -23.6662 -4.9600 -1.4512 -0.3997 1.1352
-3.1894 92.2594 0.1972 0.0654 -0.6177 0.9547 -3.6387 7.7908 0.3014 -2.4702 -1.4613 0.7828 -10.1954 25.9757 -5.0993 -4.3124 32.8597 7.0925 -0.0796 -3.5320 4.2540 4.4418 -4.9116 2.0189 -0.1925 -0.0535 0.1114 0.5113 -10.3224 -3.6578 -0.9027 -10.3489 3.9449 -7.2932 13.5163 -12.5871 -36.9510 -61.3639 -2.7714 0.0226 -1.7202 -71.0362 118.0306 -74.5644 -57.8062 -15.4604 10.6655 14.7596 -58.0138 1.6215 2.0079 12.2376 22.3215 13.7097 66.2354 37.7001 51.0930 1.1983 -1.7195 96.0074 46.3418 -15.1495 7.0250 15.3016 7.6798 -16.5111 52.3293 -3.4472 -4.9961 8.6025 -36.3446 21.5237 -0.3167 29.7549 -0.5906 -8.2234 8.2037 3.4562 1.6329 0.5861 -1.9788 -16.1162 -2.8305 -18.3236 0.0600 29.5580 0.6505 20.6131 -23.6684 -5.0513 -1.4489 -0.3729 1.1356
-3.2776 92.2616 0.2074 -0.0801 -0.6339 0.9371 -3.6265 7.6967 0.2908 -2.4902 -1.5312 0.7562 -10.2010 26.0188 -5.1553 -4.2609 33.2406 7.1499 -0.0736 -3.5380 4.0837 4.4888 -4.7407 1.9959 -0.2136 -0.0516 0.1222 0.4867 -10.3266 -3.6488 -0.9196 -10.3526 3.9621 -7.0812 13.5539 -12.6064 -36.3864 -61.5585 -3.8320 -0.1431 -1.6905 -70.6753 120.2111 -74.2728 -59.0133 -15.4439 10.5798 14.6860 -57.6605 1.5852 2.0445 12.0841 22.4058 13.6856 66.4635 37.7145 51.6293 1.0880 -1.7774 96.0668 46.1099 -14.5319 7.2590 15.2740 7.6972 -16.5539 52.4547 -3.4254 -5.0013 8.8768 -36.3605 21.3966 -0.2955 29.6001 -0.5580 -8.2192 8.4299 3.4467 1.6323 0.6018 -1.9816 -15.9378 -2.5703 -18.3010 0.0449 29.2454 0.6161 20.5655 -23.6417 -5.0089 -1.4419 -0.3973 1.1352
-3.3532 92.3123 0.2126 -0.1933 -0.6626 0.8365 -3.6002 7.5893 0.2869 -2.5042 -1.6039 0.7452 -10.2181 26.0155 -5.1918 -4.2608 33.5095 7.1916 -0.0796 -3.5381 3.9584 4.5985 -4.5611 2.0057 -0.2298 -0.0531 0.1310 0.4613 -10.3314 -3.6406 -0.9269 -10.3566 3.9768 -6.7941 13.5949 -12.5324 -35.9891 -61.8176 -4.8456 -0.4176 -1.6230 -70.3090 123.4327 -74.1126 -61.1829 -15.4103 10.4565 14.6436 -57.2558 1.5703 2.0580 11.8765 22.4771 13.6777 66.6913 37.7585 52.2373 0.9014 -1.7723 96.1484 45.7910 -13.9910 7.6635 15.2513 7.7011 -16.5873 52.5551 -3.3912 -5.0031 9.1340 -36.2080 21.2103 -0.2829 29.2742 -0.5384 -8.2143 8.6789 3.6160 1.6303 0.6306 -1.9911 -15.8233 -2.2858 -18.2792 0.0399 28.7710 0.6063 20.5413 -23.4648 -4.8495 -1.4367 -0.4655 1.1286
-3.3806 92.3948 0.1852 -0.2621 -0.6863 0.6425 -3.5736 7.4700 0.2869 -2.5117 -1.6667 0.7598 -10.2109 25.9414 -5.2159 -4.3734 33.7570 7.1673 -0.1071 -3.5470 3.9167 4.7328 -4.3436 2.0233 -0.2398 -0.0563 0.1371 0.4410 -10.3315 -3.6341 -0.9262 -10.3556 3.9855 -6.4140 13.6040 -12.4124 -35.9029 -62.0949 -5.6752 -0.6180 -1.6099 -70.0053 127.1961 -73.9084 -63.8664 -15.3961 10.3463 14.6631 -56.9343 1.5575 2.0602 11.5743 22.5173 13.6678 66.9242 37.8287 52.8638 0.6606 -1.7071 96.2599 45.4645 -13.6635 8.0497 15.2102 7.6808 -16.6173 52.5271 -3.3636 -4.9966 9.3484 -35.9372 21.0238 -0.2750 28.8165 -0.5259 -8.2457 8.9166 3.8836 1.6267 0.6459 -1.9907 -15.7992 -2.0275 -18.2945 0.0456 28.1758 0.6164 20.5493 -23.2146 -4.5338 -1.4314 -0.5375 1.1283
-3.3763 92.5255 0.1765 -0.2961 -0.7155 0.3209 -3.5387 7.3350 0.3049 -2.5092 -1.7183 0.7869 -10.1868 25.8093 -5.2315 -4.5580 34.0492 7.1543 -0.1576 -3.5568 3.8688 4.8235 -4.0979 2.0343 -0.2499 -0.0572 0.1424 0.4258 -10.3255 -3.6277 -0.9307 -10.3503 3.9932 -5.9791 13.6211 -12.2534 -36.1544 -62.4927 -6.2772 -0.8030 -1.6098 -69.7188 131.8568 -73.4799 -67.4137 -15.3669 10.2643 14.7175 -56.6578 1.5362 2.0716 11.2329 22.5530 13.6807 67.0533 37.9050 53.3708 0.4504 -1.6890 96.3979 45.2327 -13.4073 8.3959 15.1693 7.6595 -16.6171 52.4607 -3.3328 -4.9458 9.5514 -35.5647 20.8223 -0.2758 28.2759 -0.5241 -8.2817 9.1719 4.2978 1.6236 0.6371 -1.9960 -15.8698 -1.8034 -18.3286 0.0572 27.4886 0.6253 20.5404 -22.9136 -4.0472 -1.4284 -0.5918 1.1184
-3.3296 92.6796 0.1645 -0.2624 -0.7708 -0.1135 -3.5065 7.1990 0.3518 -2.4993 -1.8014 0.7937 -10.1162 25.6152 -5.1911 -4.8413 34.4400 7.1730 -0.2076 -3.5576 3.7661 4.8289 -3.7744 2.0390 -0.2719 -0.0541 0.1535 0.4098 -10.3211 -3.6151 -0.9609 -10.3513 4.0123 -5.4846 13.6745 -12.0877 -36.9892 -63.0000 -6.3808 -1.0136 -1.6111 -69.4312 136.9525 -72.8292 -71.2834 -15.3825 10.1524 14.7144 -56.3849 1.4547 2.0880 10.7990 22.5493 13.7150 67.2472 37.9790 53.8832 0.2419 -1.7453 96.5291 44.9931 -13.2458 8.6093 15.1523 7.6547 -16.6152 52.4843 -3.3118 -4.9349 9.7053 -35.0416 20.6096 -0.2727 27.6620 -0.5163 -8.3346 9.4270 4.8827 1.6230 0.5704 -2.0192 -16.0523 -1.5674 -18.3615 0.0695 26.6837 0.6176 20.4630 -22.5743 -3.4166 -1.4301 -0.6712 1.0931
-3.2404 92.8469 0.1535 -0.1723 -0.8524 -0.6198 -3.4805 7.0243 0.3820 -2.4852 -1.8717 0.8352 -9.9985 25.3786 -5.1777 -5.2059 34.9122 7.2326 -0.2760 -3.5532 3.6203 4.7539 -3.4034 2.0186 -0.2989 -0.0540 0.1644 0.3911 -10.3288 -3.6044 -0.9956 -10.3650 4.0329 -4.9646 13.7657 -11.8429 -38.4064 -63.6858 -5.9177 -1.2278 -1.5764 -69.2269 142.1637 -71.8562 -75.1113 -15.4157 10.0273 14.7116 -56.1589 1.3653 2.0732 10.3846 22.5184 13.7630 67.4297 38.1091 54.4220 0.0471 -1.8192 96.7102 44.6804 -13.0400 8.7086 15.1217 7.6541 -16.6092 52.5626 -3.2950 -4.9308 9.8015 -34.4218 20.4534 -0.2613 27.0363 -0.5002 -8.3498 9.6312 5.5009 1.6235 0.4925 -2.0404 -16.3496 -1.3125 -18.4113 0.0798 25.7836 0.6401 20.4307 -22.1811 -2.7918 -1.4296 -0.7533 1.0488
-3.0901 92.9962 0.1744 -0.0237 -0.9688 -1.1867 -3.4580 6.8429 0.3818 -2.4569 -1.9661 0.8525 -9.8057 25.0823 -5.1117 -5.6514 35.4508 7.2654 -0.3573 -3.5488 3.4440 4.6499 -3.0251 1.9367 -0.3194 -0.0560 0.1714 0.3715 -10.3320 -3.5940 -1.0176 -10.3761 4.0446 -4.3879 13.8726 -11.5164 -40.7861 -64.3520 -4.4220 -1.3371 -1.5826 -69.3130 146.5270 -70.5687 -78.1298 -15.4664 9.9159 14.7402 -56.0425 1.2810 2.0408 9.9949 22.4375 13.7639 67.6139 38.2776 54.9578 -0.0384 -1.9357 96.9409 44.3445 -12.7776 8.7613 15.0159 7.7086 -16.6510 52.6357 -3.2405 -4.9488 9.8106 -33.7287 20.4312 -0.2409 26.4849 -0.4765 -8.3451 9.7779 6.0690 1.6273 0.4015 -2.0594 -16.7537 -1.0393 -18.4625 0.0879 24.8369 0.6542 20.4229 -21.7372 -2.1502 -1.4303 -0.8198 1.0083
-2.8857 93.1417 0.2464 0.1809 -1.1035 -1.7893 -3.4156 6.6550 0.3769 -2.4078 -2.0711 0.8251 -9.5232 24.7547 -5.0273 -6.1701 35.9821 7.2495 -0.4373 -3.5443 3.2580 4.4819 -2.6612 1.7517 -0.3372 -0.0584 0.1778 0.3608 -10.3516 -3.5907 -1.0426 -10.3947 4.0607 -3.6565 14.0232 -11.0468 -44.8025 -65.0713 -1.1844 -1.4323 -1.6337 -69.8357 149.2235 -69.1520 -79.6140 -15.5719 9.8325 14.8595 -56.1411 1.2201 1.9855 9.6572 22.3468 13.7029 67.7855 38.5412 55.4424 -0.0322 -2.0723 97.3364 44.0258 -12.6822 8.6559 14.9250 7.7604 -16.7023 52.7176 -3.1923 -4.9632 9.7200 -33.0563 20.5601 -0.2271 26.1266 -0.4663 -8.3385 9.7841 6.5271 1.6315 0.3300 -2.0732 -17.2626 -0.7544 -18.5004 0.0891 23.8965 0.6626 20.5161 -21.2941 -1.5235 -1.4328 -0.8492 0.9807
-2.5981 93.2536 0.3483 0.4435 -1.2223 -2.3771 -3.3466 6.4683 0.3616 -2.3300 -2.1779 0.7706 -9.1306 24.4125 -4.9140 -6.6833 36.4606 7.1382 -0.4893 -3.5509 3.0295 4.1395 -2.3755 1.4920 -0.3468 -0.0612 0.1822 0.3547 -10.3763 -3.5938 -1.0560 -10.4194 4.0761 -2.7492 14.2231 -10.4616 -50.6542 -65.6404 4.0383 -1.4699 -1.6962 -70.9045 150.0806 -67.9561 -79.4868 -15.7435 9.8063 15.0791 -56.5116 1.2192 1.9465 9.4226 22.2151 13.5343 68.0321 38.9361 55.9532 0.0107 -2.2243 97.8552 43.7886 -12.8925 8.2807 14.8718 7.8018 -16.7706 52.7612 -3.1866 -5.0180 9.5003 -32.4676 20.8143 -0.2063 26.0083 -0.4419 -8.3180 9.6355 6.8771 1.6354 0.2583 -2.0785 -17.8762 -0.5062 -18.5138 0.0889 22.9925 0.6672 20.7361 -20.8616 -0.9866 -1.4336 -0.8712 0.9679
-2.2393 93.3510 0.4847 0.7473 -1.3292 -2.9351 -3.2336 6.3116 0.3674 -2.2287 -2.2904 0.6904 -8.6154 24.1083 -4.7998 -7.0820 36.8712 6.9622 -0.5450 -3.5695 2.7514 3.6193 -2.1620 1.1847 -0.3353 -0.0663 0.1778 0.3707 -10.4117 -3.6116 -1.0484 -10.4574 4.0813 -1.6048 14.4303 -9.7189 -58.3940 -65.8033 11.2847 -1.4709 -1.8824 -72.4270 149.1461 -67.0666 -77.9325 -15.8935 9.8399 15.3871 -57.0187 1.2288 1.9547 9.3194 22.0979 13.3202 68.2552 39.4419 56.3195 0.1178 -2.2723 98.4919 43.6183 -13.4726 7.6501 14.8340 7.8349 -16.8197 52.7569 -3.1740 -5.0652 9.1462 -31.9723 21.1721 -0.1961 26.1119 -0.4347 -8.2326 9.3638 7.1236 1.6390 0.1923 -2.0748 -18.5686 -0.2856 -18.4952 0.0883 22.1303 0.6763 21.0594 -20.4376 -0.5251 -1.4348 -0.9206 0.9662
-1.8306 93.4118 0.6466 1.0707 -1.3985 -3.3975 -3.0880 6.1860 0.3576 -2.1162 -2.3879 0.6073 -7.9842 23.8449 -4.6566 -7.2506 37.2446 6.7729 -0.5844 -3.5827 2.3921 2.9515 -2.0167 0.8762 -0.3194 -0.0719 0.1724 0.3925 -10.4531 -3.6304 -1.0381 -10.4995 4.0849 -0.2124 14.6232 -8.8314 -67.0092 -65.2694 19.5027 -1.4456 -2.1844 -74.0340 146.9306 -66.7821 -75.5943 -16.0050 9.8556 15.6491 -57.4000 1.2508 1.9883 9.3117 21.9646 13.0886 68.5821 39.9714 56.5423 0.3372 -2.2274 99.1134 43.4727 -14.0938 7.0347 14.8035 7.8894 -16.8574 52.7032 -3.1573 -5.1009 8.6980 -31.6220 21.5682 -0.1854 26.4021 -0.4137 -8.0915 9.0108 7.2987 1.6437 0.1323 -2.0698 -19.3254 -0.1422 -18.5108 0.0914 21.3449 0.6892 21.4732 -20.0293 -0.1580 -1.4363 -0.9650 0.9783
